<svg xmlns="http://www.w3.org/2000/svg" width="24.617" height="30.123" viewBox="0 0 24.617 30.123">
  <g id="appstore" transform="translate(-27.875)">
    <path id="XMLID_229_" d="M29.146,76.251c-2.547,4.419-.928,11.126,1.888,15.192,1.406,2.033,2.829,3.858,4.778,3.858l.111,0a5.9,5.9,0,0,0,2.218-.591,6.072,6.072,0,0,1,2.627-.623,5.711,5.711,0,0,1,2.5.6,5.3,5.3,0,0,0,2.4.574c2.2-.041,3.544-2.01,4.733-3.747a16.61,16.61,0,0,0,2.074-4.248l.008-.027a.247.247,0,0,0-.131-.3l-.018-.008a6.294,6.294,0,0,1-3.814-5.764,6.479,6.479,0,0,1,3.061-5.416l.024-.015a.247.247,0,0,0,.07-.347,7.125,7.125,0,0,0-5.6-3.043c-.159-.016-.324-.024-.489-.024a9.769,9.769,0,0,0-3.517.878,5.654,5.654,0,0,1-1.685.5,5.512,5.512,0,0,1-1.743-.51,8.444,8.444,0,0,0-3.072-.78h-.078A7.532,7.532,0,0,0,29.146,76.251Z" transform="translate(0 -65.177)" fill="#fff"/>
    <path id="XMLID_230_" d="M155.421,0a6.878,6.878,0,0,0-4.541,2.329,6.444,6.444,0,0,0-1.631,4.778.247.247,0,0,0,.226.214c.105.008.212.012.319.012a5.818,5.818,0,0,0,4.286-2.2,6.794,6.794,0,0,0,1.6-4.915A.248.248,0,0,0,155.421,0Z" transform="translate(-109.351 0)" fill="#fff"/>
  </g>
</svg>
