<svg xmlns="http://www.w3.org/2000/svg" width="97.8" height="19.122" viewBox="0 0 97.8 19.122">
  <g id="bloomberg" transform="translate(-1.1 -40.4)">
    <path id="Path_10" data-name="Path 10" d="M1.1,40.4H5.2c2.6,0,3.3,0,4.3,1.3a3.566,3.566,0,0,1,.8,2.3,2.979,2.979,0,0,1-1.5,2.5c2.3.8,2,2.8,2,3.6a3.381,3.381,0,0,1-1.3,2.8c-1.3,1-1.8,1.3-4.1,1.3H1.1V40.4Zm3.6,5.1h1c.5,0,1.3,0,1.3-1s-.8-1-1.3-1h-1v2Zm0,5.6H6c.5,0,1.8,0,1.5-1.3.3-1.3-.8-1.3-1.5-1.3H4.7v2.6Z" fill="#fff"/>
    <path id="Path_11" data-name="Path 11" d="M11.8,40.4h3.1V54.2H11.8Z" fill="#fff"/>
    <path id="Path_12" data-name="Path 12" d="M21.3,43.5a5.341,5.341,0,0,1,5.6,5.6,5.464,5.464,0,0,1-5.6,5.4,5.752,5.752,0,0,1-5.6-5.4c.2-2.8,2-5.6,5.6-5.6Zm0,8.1a2.537,2.537,0,0,0,2.5-2.5c0-1.8-1-2.8-2.5-2.8-1.3,0-2.3,1-2.3,2.8a2.438,2.438,0,0,0,2.3,2.5Z" fill="#fff"/>
    <path id="Path_13" data-name="Path 13" d="M33.3,43.5a5.341,5.341,0,0,1,5.6,5.6,5.6,5.6,0,0,1-11.2,0,5.231,5.231,0,0,1,5.6-5.6Zm0,8.1a2.688,2.688,0,0,0,2.5-2.5,2.617,2.617,0,0,0-2.5-2.8,2.654,2.654,0,0,0,0,5.3Z" fill="#fff"/>
    <path id="Path_14" data-name="Path 14" d="M39.7,43.7h2.8V45a2.978,2.978,0,0,1,2.8-1.5,3.289,3.289,0,0,1,3.1,1.8,4.108,4.108,0,0,1,3.3-1.8,3.285,3.285,0,0,1,2.8,1c1,1,1,1.8,1,4.1v5.6H52.4V48.6c0-.8,0-2.3-1.5-2.3-1.8,0-1.8,1.5-1.8,2.3v5.6H46V48.6c0-.8,0-2.3-1.5-2.3-1.8,0-1.8,1.8-1.8,2.3v5.6H39.6l.1-10.5Z" fill="#fff"/>
    <path id="Path_15" data-name="Path 15" d="M56.8,40.4h3.3v4.3a3.49,3.49,0,0,1,2.8-1.3c2.3,0,5.4,1.5,5.1,5.4a5.026,5.026,0,0,1-5.1,5.6,4.719,4.719,0,0,1-3.1-1.3v1H56.7l.1-13.7Zm5.6,11.2A2.658,2.658,0,1,0,60,49.1a2.278,2.278,0,0,0,2.4,2.5Z" fill="#fff"/>
    <path id="Path_16" data-name="Path 16" d="M79.8,50.9a6.35,6.35,0,0,1-2.3,2.8,5.51,5.51,0,1,1-3-10.2,5.468,5.468,0,0,1,5.6,5.6v.8H72.2a2.494,2.494,0,0,0,2.6,2,1.937,1.937,0,0,0,1.8-1Zm-2.9-3.1A2.319,2.319,0,0,0,74.6,46,3.178,3.178,0,0,0,72,47.8Z" fill="#fff"/>
    <path id="Path_17" data-name="Path 17" d="M81.3,43.7h2.8V45a3.657,3.657,0,0,1,3.1-1v2.8c-1.3,0-2.8,0-2.8,1.8v5.6H81.3V43.7Z" fill="#fff"/>
    <path id="Path_18" data-name="Path 18" d="M98.9,52.9a9.977,9.977,0,0,1-.8,4.3A5.369,5.369,0,0,1,93,59.5c-3.6-.5-4.6-2-4.8-3.6h3.3c.5.8,1.5.8,1.8,1,1.5-.2,2.6-.2,2.3-3.6V53a2.934,2.934,0,0,1-2.8,1.3,5.019,5.019,0,0,1-5.1-5.4,5.248,5.248,0,0,1,5.1-5.6c1.3,0,2.3.3,2.8,1.3v-1h3.3v9.3Zm-5.6-1.3a2.082,2.082,0,0,0,2.3-2.5,2.279,2.279,0,0,0-2.3-2.8,2.632,2.632,0,0,0-2.6,2.8,2.559,2.559,0,0,0,2.6,2.5Z" fill="#fff"/>
  </g>
</svg>
