<svg xmlns="http://www.w3.org/2000/svg" width="98.3" height="31.039" viewBox="0 0 98.3 31.039">
  <g id="business-insider" transform="translate(-0.8 -34.5)">
    <path id="Path_41" data-name="Path 41" d="M31.4,34.7a6.922,6.922,0,0,1,2.5-.1,6.22,6.22,0,0,1,2.6.9v2.1a5.071,5.071,0,0,0-1.6-.9,6.375,6.375,0,0,0-2.4-.4,2.016,2.016,0,0,0-1.1.3,1.205,1.205,0,0,0-.5.5.972.972,0,0,0-.1.9,1.012,1.012,0,0,0,.4.7,3.128,3.128,0,0,0,1,.5c.7.3,1.4.5,2.2.8a4.248,4.248,0,0,1,1.7,1,2.6,2.6,0,0,1,.9,1.6,4.067,4.067,0,0,1,0,1.9,3.766,3.766,0,0,1-.9,1.5,5.559,5.559,0,0,1-1.7.9,10.554,10.554,0,0,1-2.5.2,6.682,6.682,0,0,1-3-1V43.9a5.943,5.943,0,0,0,3.8,1.4,4.671,4.671,0,0,0,1.7-.3,2.336,2.336,0,0,0,.7-.7,2.045,2.045,0,0,0,0-1.1,1.387,1.387,0,0,0-.7-.8,8.651,8.651,0,0,0-1.7-.7,18.944,18.944,0,0,1-2.1-.9,4.735,4.735,0,0,1-1.3-1.1,4.193,4.193,0,0,1-.5-2.2,3.379,3.379,0,0,1,.9-1.9,2.588,2.588,0,0,1,1.7-.9Z" fill="#fff" fill-rule="evenodd"/>
    <path id="Path_42" data-name="Path 42" d="M79.7,35.2a5.3,5.3,0,0,1,2.8-.7,6.2,6.2,0,0,1,3.5,1v2.1c-.4-.3-.9-.6-1.4-.9a5.478,5.478,0,0,0-2.8-.4,1.653,1.653,0,0,0-1.3.8,1.248,1.248,0,0,0,.3,1.6,2.725,2.725,0,0,0,1.2.6c.7.3,1.4.5,2.1.8a4.517,4.517,0,0,1,1.7,1.1,3.648,3.648,0,0,1,.6,3.7,2.765,2.765,0,0,1-1.1,1.3,4.383,4.383,0,0,1-1.9.7,6.621,6.621,0,0,1-2.8-.1,8.488,8.488,0,0,1-2.2-.9V43.7A5.922,5.922,0,0,0,81.3,45a6.6,6.6,0,0,0,1.4.1,2.01,2.01,0,0,0,1.3-.4,1.456,1.456,0,0,0,.6-.9,1.314,1.314,0,0,0-.3-1.2,1.7,1.7,0,0,0-1-.6l-1.8-.6a12.2,12.2,0,0,1-1.7-.7,4.263,4.263,0,0,1-1.2-1.1,2.934,2.934,0,0,1-.4-1.6,3.887,3.887,0,0,1,.2-1.5,4.037,4.037,0,0,1,1.3-1.3Z" fill="#fff" fill-rule="evenodd"/>
    <path id="Path_43" data-name="Path 43" d="M93,34.8a5.662,5.662,0,0,1,1.8-.3,6.528,6.528,0,0,1,3.6,1l.1.1v2.1a5.071,5.071,0,0,0-1.6-.9,5.867,5.867,0,0,0-2.3-.4,2.016,2.016,0,0,0-1.1.3,1.724,1.724,0,0,0-.6.6,1.359,1.359,0,0,0,.3,1.5,8.865,8.865,0,0,0,1.7.8c.7.3,1.4.5,2,.8a4.813,4.813,0,0,1,1.6,1.2,3.606,3.606,0,0,1,.6,2,3.743,3.743,0,0,1-.5,1.8,3.491,3.491,0,0,1-1.5,1.2,6.529,6.529,0,0,1-2,.5,8.954,8.954,0,0,1-2.3-.2,5.45,5.45,0,0,1-1.9-.8V43.9a5.943,5.943,0,0,0,3.8,1.4,3.233,3.233,0,0,0,1.7-.3,1.057,1.057,0,0,0,.6-.7,2.045,2.045,0,0,0,0-1.1,1.779,1.779,0,0,0-.7-.8,13.355,13.355,0,0,0-1.8-.7,18.944,18.944,0,0,1-2.1-.9,3.745,3.745,0,0,1-1.3-1.2,4.058,4.058,0,0,1-.4-1.9,2.716,2.716,0,0,1,.6-1.7A2.982,2.982,0,0,1,93,34.8Z" fill="#fff" fill-rule="evenodd"/>
    <path id="Path_44" data-name="Path 44" d="M50.3,34.5c2.8,2.7,5.6,5.3,8.4,8V34.7h2V47.1c-1.9-1.8-3.8-3.7-5.7-5.5-.9-.9-1.8-1.8-2.7-2.6v7.9h-2c0-4.1,0-8.2,0-12.4Z" fill="#fff" fill-rule="evenodd"/>
    <path id="Path_45" data-name="Path 45" d="M.9,34.7H4.1a15.483,15.483,0,0,1,2.2.1,4.025,4.025,0,0,1,2,.9,2.9,2.9,0,0,1,.9,1.5,4.584,4.584,0,0,1-.1,2,2.118,2.118,0,0,1-1.4,1.5c.1.1.2.1.3.2a3.389,3.389,0,0,1,1.4,1.5,2.622,2.622,0,0,1,.2,1.5,3.594,3.594,0,0,1-.7,1.8A3.113,3.113,0,0,1,7,46.8a6.154,6.154,0,0,1-1.9.2H.8c.1-4.1.1-8.2.1-12.3Zm2,1.8v3.3H5.4a2.1,2.1,0,0,0,1.5-.5,2.355,2.355,0,0,0,.5-1,1.676,1.676,0,0,0-.3-1.2,1.231,1.231,0,0,0-1-.5,5.283,5.283,0,0,0-1.3-.1Zm0,5.1v3.6H5.5a2.3,2.3,0,0,0,1.4-.4,1.445,1.445,0,0,0,.7-1,2.2,2.2,0,0,0-.2-1.4,1.6,1.6,0,0,0-.9-.7,3.4,3.4,0,0,0-1-.1Z" fill="#fff" fill-rule="evenodd"/>
    <path id="Path_46" data-name="Path 46" d="M14.1,34.7h2.1V41a16.2,16.2,0,0,0,.1,2.2,2.143,2.143,0,0,0,.9,1.5,3.371,3.371,0,0,0,1.7.5,3.085,3.085,0,0,0,1.8-.5,3.045,3.045,0,0,0,.9-1.3,5.537,5.537,0,0,0,.2-1.8v-7h2.1v7.3a5.829,5.829,0,0,1-.6,2.9,4.144,4.144,0,0,1-1.9,1.8,5.708,5.708,0,0,1-2.9.4,4.657,4.657,0,0,1-2-.6,3.775,3.775,0,0,1-1.2-1,3.465,3.465,0,0,1-.8-1.6,6.929,6.929,0,0,1-.3-2c-.1-2.3-.1-4.7-.1-7.1Z" fill="#fff" fill-rule="evenodd"/>
    <path id="Path_47" data-name="Path 47" d="M42.3,34.7h2.1V46.9H42.3V34.7Z" fill="#fff" fill-rule="evenodd"/>
    <path id="Path_48" data-name="Path 48" d="M66.2,34.7h7.4v1.8H68.2v2.9H73v1.8H68.2V45h5.4v1.9H66.2V34.7Z" fill="#fff" fill-rule="evenodd"/>
    <path id="Path_49" data-name="Path 49" d="M17,53.1c2.8,2.6,5.5,5.2,8.3,7.9V53.3h2V65.5c-2.8-2.7-5.5-5.3-8.3-8v7.8H17V53.1Z" fill="#fff" fill-rule="evenodd"/>
    <path id="Path_50" data-name="Path 50" d="M34.4,53.5a4.418,4.418,0,0,1,2.5-.4,5.8,5.8,0,0,1,3.3,1v2.1a5.071,5.071,0,0,0-1.6-.9,6.722,6.722,0,0,0-2.4-.4,2.016,2.016,0,0,0-1.1.3c-.2.2-.5.4-.5.7a1.238,1.238,0,0,0,.3,1.4,5.3,5.3,0,0,0,1,.6c.7.3,1.5.5,2.2.8a5.071,5.071,0,0,1,1.6.9,3.072,3.072,0,0,1,1,1.5,3.673,3.673,0,0,1,.1,1.8,2.371,2.371,0,0,1-.9,1.5,5.072,5.072,0,0,1-1.6.9,6,6,0,0,1-2.3.2,10.267,10.267,0,0,1-2.4-.5,4.054,4.054,0,0,1-.9-.5V62.4a5.943,5.943,0,0,0,3.8,1.4,3.233,3.233,0,0,0,1.7-.3,1.387,1.387,0,0,0,.7-.8,1.7,1.7,0,0,0,0-1,1.779,1.779,0,0,0-.7-.8,8.651,8.651,0,0,0-1.7-.7,6.391,6.391,0,0,1-1.9-.8,4.071,4.071,0,0,1-1.4-1.2,3.743,3.743,0,0,1-.5-1.8,3.371,3.371,0,0,1,.5-1.7c.1-.6.6-.9,1.2-1.2Z" fill="#fff" fill-rule="evenodd"/>
    <path id="Path_51" data-name="Path 51" d="M9.1,53.3h2.1v12H9.1v-12Z" fill="#fff" fill-rule="evenodd"/>
    <path id="Path_52" data-name="Path 52" d="M46.1,53.3h2.1v12H46.1v-12Z" fill="#fff" fill-rule="evenodd"/>
    <path id="Path_53" data-name="Path 53" d="M54.2,53.3H59a5.6,5.6,0,0,1,3.5,1.1,5.066,5.066,0,0,1,1.8,2.5,7.267,7.267,0,0,1,.4,2.5,6.2,6.2,0,0,1-1,3.5,4.48,4.48,0,0,1-2.4,1.9,6.874,6.874,0,0,1-2.4.5H54.1c.1-4,.1-8,.1-12Zm2,1.8v8.4h3.2a3.981,3.981,0,0,0,2.1-.9,4.248,4.248,0,0,0,1-1.7,6.478,6.478,0,0,0,.2-2,4.711,4.711,0,0,0-.4-1.7,2.765,2.765,0,0,0-1.1-1.3,3.96,3.96,0,0,0-1.9-.7H58.1a12.751,12.751,0,0,0-1.9-.1Z" fill="#fff" fill-rule="evenodd"/>
    <path id="Path_54" data-name="Path 54" d="M69,53.3h7.3v1.8H71V58h4.8v1.8H71v3.7h5.3v1.8H69v-12Z" fill="#fff" fill-rule="evenodd"/>
    <path id="Path_55" data-name="Path 55" d="M82.5,53.3H87a4.193,4.193,0,0,1,2.2.5A3,3,0,0,1,90.5,55a3.513,3.513,0,0,1,.5,2,3.845,3.845,0,0,1-.5,2.1,2.335,2.335,0,0,1-1.2,1,2.279,2.279,0,0,1-1.1.3c1.4,1.6,2.9,3.3,4.3,4.9H90.2c-1.4-1.6-2.8-3.3-4.2-4.9H84.6v4.9H82.5q0-6,0-12Zm2,1.7v3.7h2.4a2.7,2.7,0,0,0,1.5-.5,1.6,1.6,0,0,0,.5-1,2.2,2.2,0,0,0-.2-1.4,1.64,1.64,0,0,0-1.1-.7,5.7,5.7,0,0,0-1.3-.1Z" fill="#fff" fill-rule="evenodd"/>
  </g>
</svg>
