<svg xmlns="http://www.w3.org/2000/svg" width="76.7" height="50" viewBox="0 0 76.7 50">
  <g id="cbs" transform="translate(-11.6 -26)">
    <path id="Path_19" data-name="Path 19" d="M23.1,26.2A11.651,11.651,0,1,0,34.6,37.8,11.61,11.61,0,0,0,23.1,26.2Zm0,18.5c-4.7,0-8.6-3.2-10.6-6.9A12.225,12.225,0,0,1,23.1,31a12.1,12.1,0,0,1,10.6,6.8C31.7,41.5,27.9,44.7,23.1,44.7Z" fill="#fff" fill-rule="evenodd"/>
    <path id="Path_20" data-name="Path 20" d="M23.1,43.7A5.911,5.911,0,0,0,29,37.8a5.9,5.9,0,1,0-11.8,0v.1a5.891,5.891,0,0,0,5.9,5.8Z" fill="#fff" fill-rule="evenodd"/>
    <path id="Path_21" data-name="Path 21" d="M40.8,37.8c0-8.4,2.4-11.4,5.2-11.4,4,0,6.3,6.1,6.9,8.4h0V26.6h0c-.7.5-1,.8-1.8.8a5.65,5.65,0,0,1-2.4-.7,5.991,5.991,0,0,0-2.7-.6c-3.5,0-9.7,4.8-9.7,11.7-.1,8.1,5.5,11.7,9.7,11.7a5.656,5.656,0,0,0,2.8-.8,5.231,5.231,0,0,1,2.3-.8c.8,0,1.1.3,1.8.8h0V40.4h0c-.6,3.2-2.9,8.7-6.9,8.7a5.2,5.2,0,0,1-3.5-1.3c-.1-.1-1.7-1.3-1.7-10Z" fill="#fff" fill-rule="evenodd"/>
    <path id="Path_22" data-name="Path 22" d="M66.5,37c4.5-1,5.3-3,5.3-5,0-2.8-3.2-5.5-7.6-5.5H53.5v.2H57V49H53.5v.2H64.6c3.4,0,8.3-2.1,8.3-6.5S68.3,37.1,66.5,37ZM68,31.9c0,4.7-1.5,4.9-3.1,4.9H61.6v-10H64C66.1,26.8,68,27.2,68,31.9Zm-3.4,17H61.4v-.1h.3V37h3.1c2.3.1,4.1,1.2,4.1,6C68.8,47.9,67.2,48.9,64.6,48.9Z" fill="#fff" fill-rule="evenodd"/>
    <path id="Path_23" data-name="Path 23" d="M86.3,34.7h.3V26.2h-.3a2.582,2.582,0,0,1-1.8.8c-1,0-2.6-1-4.2-1a6.734,6.734,0,0,0-6.1,6.9c0,5.1,3.4,5.9,5,6.6s6.6,1.7,6.6,5.1a4.232,4.232,0,0,1-4.4,4.6c-2,0-4.5-1.5-5.8-4.5a12.232,12.232,0,0,1-1.4-4.5h-.3v8.6h.2a2.047,2.047,0,0,1,1.4-.8c.8,0,3.7,1.5,5.9,1.5A7.551,7.551,0,0,0,88.3,42c0-5.1-3.9-5.7-5.2-6.2-1.4-.5-6.7-1.4-6.7-5.2a3.957,3.957,0,0,1,6.2-3.5C85,28.9,86.2,33.5,86.3,34.7Z" fill="#fff" fill-rule="evenodd"/>
    <path id="Path_24" data-name="Path 24" d="M83.2,62c-1.4-.5-6.7-1.4-6.7-5.2a3.957,3.957,0,0,1,6.2-3.5c2.3,1.6,3.5,6.3,3.5,7.5h.3V52.3h-.3a2.582,2.582,0,0,1-1.8.8c-1,0-2.6-1-4.2-1A6.734,6.734,0,0,0,74.1,59c0,5.1,3.4,5.9,5,6.6s6.6,1.7,6.6,5.1a4.232,4.232,0,0,1-4.4,4.6c-2,0-4.5-1.5-5.8-4.5a12.232,12.232,0,0,1-1.4-4.5h-.3v8.6H74a2.047,2.047,0,0,1,1.4-.8c.8,0,3.7,1.5,5.9,1.5a7.551,7.551,0,0,0,6.9-7.5C88.4,63,84.6,62.5,83.2,62Z" fill="#fff" fill-rule="evenodd"/>
    <path id="Path_25" data-name="Path 25" d="M75.5,52.4H70.3v.7h2.3l-5,16.3L62.7,53.1h2.5v-.7H56.9v.7h1.5L60.6,60l-2.9,9.5L52.9,53.1h1.9v-.7H25v.7h2.5V67.5l-9.1-15H11.8v.7h2.5V74.7H11.8v.5h5.6v-.5H15V55.2l12.1,20H28V53.1h4.6V74.6H30v.5H47.6V68h-.5s-.8,4-2.6,5.3A11.88,11.88,0,0,1,42,74.6H36.6V63.3h1.7a3.236,3.236,0,0,1,2.5,1c.8.8,1.5,3.6,1.5,3.6h.5V58h-.5a27.327,27.327,0,0,1-.8,2.7,3.5,3.5,0,0,1-3.1,2H36.7V53h4.9a6.341,6.341,0,0,1,3.1,1.7,7.916,7.916,0,0,1,1.5,3.2h.5V53h1.9l6.8,23h.8l4.6-15,4.5,15h.8l7.2-22.9h2.1v-.7Z" fill="#fff" fill-rule="evenodd"/>
  </g>
</svg>
