<svg xmlns="http://www.w3.org/2000/svg" width="10.477" height="12.762" viewBox="0 0 10.477 12.762">
  <path id="Clockwise_Arrow" data-name="Clockwise Arrow" d="M4.5,5.49A.535.535,0,0,1,4.664,5.1l1.6-1.582a6.278,6.278,0,0,0-1.043-.082,4.081,4.081,0,1,0,4.09,4.084.56.56,0,0,1,.568-.6.577.577,0,0,1,.6.6A5.238,5.238,0,1,1,5.221,2.291a5.7,5.7,0,0,1,.838.064L4.658.984A.578.578,0,0,1,4.5.586.577.577,0,0,1,5.068,0a.523.523,0,0,1,.41.176l2.4,2.443a.588.588,0,0,1,0,.861L5.479,5.9a.534.534,0,0,1-.41.164A.566.566,0,0,1,4.5,5.49Z" transform="translate(0 0)" fill="#979797"/>
</svg>
