<svg xmlns="http://www.w3.org/2000/svg" width="58.5" height="42.5" viewBox="0 0 58.5 42.5">
  <g id="commerce" transform="translate(-2.75 -10.75)">
    <path id="Path_65" data-name="Path 65" d="M56,10.75H8A5.25,5.25,0,0,0,2.75,16V48A5.25,5.25,0,0,0,8,53.25H56A5.25,5.25,0,0,0,61.25,48V16A5.25,5.25,0,0,0,56,10.75ZM5.25,20.14h53.5V23H5.25ZM8,13.25H56A2.75,2.75,0,0,1,58.75,16v1.64H5.25V16A2.75,2.75,0,0,1,8,13.25Zm48,37.5H8A2.75,2.75,0,0,1,5.25,48V25.5h53.5V48A2.75,2.75,0,0,1,56,50.75Z" fill="#fff"/>
    <path id="Path_66" data-name="Path 66" d="M49,40.14a3.89,3.89,0,0,0-1.76.45,3.82,3.82,0,1,0-1.77,7.2,3.731,3.731,0,0,0,1.77-.46,3.781,3.781,0,0,0,1.76.46,3.83,3.83,0,1,0,0-7.65ZM44.14,44a1.32,1.32,0,0,1,1.28-1.31,3.58,3.58,0,0,0,0,2.63A1.32,1.32,0,0,1,44.14,44ZM49,45.29a1.33,1.33,0,1,1,.92-.379,1.33,1.33,0,0,1-.92.379Z" fill="#fff"/>
  </g>
</svg>
