<svg xmlns="http://www.w3.org/2000/svg" width="58.5" height="58.5" viewBox="0 0 58.5 58.5">
  <g id="contextual" transform="translate(-2.75 -2.75)">
    <path id="Path_67" data-name="Path 67" d="M15.79,22.54h18A1.25,1.25,0,0,0,35,21.29V11a1.25,1.25,0,0,0-1.25-1.25h-18A1.25,1.25,0,0,0,14.54,11V21.29a1.25,1.25,0,0,0,1.25,1.25ZM17,12.25H32.5V20H17Z" fill="#fff"/>
    <path id="Path_68" data-name="Path 68" d="M9.57,28.68h8.35a1.25,1.25,0,1,0,0-2.5H9.57a1.25,1.25,0,1,0,0,2.5Z" fill="#fff"/>
    <path id="Path_69" data-name="Path 69" d="M57,10.75H47.31V7a4.25,4.25,0,0,0-4.25-4.25H7A4.26,4.26,0,0,0,2.75,7V57A4.26,4.26,0,0,0,7,61.25H51.25a10,10,0,0,0,10-10V15A4.26,4.26,0,0,0,57,10.75ZM44.81,12V58.75H7A1.76,1.76,0,0,1,5.25,57V7A1.76,1.76,0,0,1,7,5.25H43.06A1.75,1.75,0,0,1,44.81,7ZM58.75,51.25a7.5,7.5,0,0,1-7.5,7.5H47.31V13.25H57A1.76,1.76,0,0,1,58.75,15Z" fill="#fff"/>
    <path id="Path_70" data-name="Path 70" d="M39.57,31.66h-30a1.25,1.25,0,1,0,0,2.5h30a1.25,1.25,0,1,0,0-2.5Z" fill="#fff"/>
    <path id="Path_71" data-name="Path 71" d="M39.57,37.15h-30a1.25,1.25,0,1,0,0,2.5h30a1.25,1.25,0,1,0,0-2.5Z" fill="#fff"/>
    <path id="Path_72" data-name="Path 72" d="M39.57,42.64h-30a1.25,1.25,0,1,0,0,2.5h30a1.25,1.25,0,1,0,0-2.5Z" fill="#fff"/>
    <path id="Path_73" data-name="Path 73" d="M39.57,48.12h-30a1.25,1.25,0,1,0,0,2.5h30a1.25,1.25,0,1,0,0-2.5Z" fill="#fff"/>
    <path id="Path_74" data-name="Path 74" d="M39.57,53.61h-30a1.25,1.25,0,1,0,0,2.5h30a1.25,1.25,0,1,0,0-2.5Z" fill="#fff"/>
  </g>
</svg>
