<svg xmlns="http://www.w3.org/2000/svg" width="57.778" height="58.045" viewBox="0 0 57.778 58.045">
  <g id="cookies" transform="translate(-3.083 -2.957)">
    <path id="Path_56" data-name="Path 56" d="M33.15,27.23C26,27.46,26,37.77,33.15,38,40.26,37.76,40.25,27.45,33.15,27.23Zm0,8.76a3.38,3.38,0,1,1,0,.01Z" fill="#fff"/>
    <path id="Path_57" data-name="Path 57" d="M18,17a3.64,3.64,0,1,0,3.64,3.64A3.64,3.64,0,0,0,18,17Zm0,5.28a1.64,1.64,0,1,1,1.64-1.64A1.64,1.64,0,0,1,18,22.28Z" fill="#fff"/>
    <path id="Path_58" data-name="Path 58" d="M43.71,38.37a3.64,3.64,0,1,0,3.64,3.64A3.64,3.64,0,0,0,43.71,38.37Zm0,5.28a1.64,1.64,0,1,1,1.64-1.64,1.64,1.64,0,0,1-1.64,1.64Z" fill="#fff"/>
    <path id="Path_59" data-name="Path 59" d="M38.67,15.13a3.64,3.64,0,1,0,.533,5.025A3.64,3.64,0,0,0,38.67,15.13ZM37.73,19a1.64,1.64,0,1,1-.361-2.209A1.64,1.64,0,0,1,37.73,19Z" fill="#fff"/>
    <path id="Path_60" data-name="Path 60" d="M31.47,44.38c-6.13-.9-7.67,8.07-1.59,9.27C36,54.55,37.56,45.59,31.47,44.38Zm1.87,5.09a2.708,2.708,0,1,1-2.215-3.125A2.708,2.708,0,0,1,33.34,49.47Z" fill="#fff"/>
    <path id="Path_61" data-name="Path 61" d="M60.56,35.25a1,1,0,0,0-.87-.26,3.9,3.9,0,0,1-2.6-.48,3.84,3.84,0,0,1-1.89-3.64,1,1,0,0,0-1-1.08A5.6,5.6,0,0,1,51.47,29a5.72,5.72,0,0,1-.44-9.5,1,1,0,0,0-.3-1.85A5.05,5.05,0,0,1,47,13.38a1,1,0,0,0-1.4-.78,3.88,3.88,0,0,1-5-5.21,4.1,4.1,0,0,1,1-1.26,1,1,0,0,0-.34-1.7C17.28-3.33-4.63,21,5.71,43.93a29,29,0,0,0,55.14-7.82A1,1,0,0,0,60.56,35.25ZM43.25,56.61C21.51,66.48-1.64,44.74,6.89,22.45,11.41,9.73,26.12,2.23,39.08,5.9c-2.88,4.3,1.21,10,6.14,8.9A7.06,7.06,0,0,0,48.64,19c-4.1,4.35-1.35,12,4.57,12.73A5.9,5.9,0,0,0,58.67,37,26.88,26.88,0,0,1,43.25,56.61Z" fill="#fff"/>
    <path id="Path_62" data-name="Path 62" d="M18.83,35.4c-3.39-4.55-10.19.25-7,5C15.24,44.96,22.02,40.15,18.83,35.4Zm-2.19,4.37a2.3,2.3,0,1,1,.565-3.205,2.3,2.3,0,0,1-.565,3.205Z" fill="#fff"/>
  </g>
</svg>
