<svg xmlns="http://www.w3.org/2000/svg" width="19.673" height="15.514" viewBox="0 0 19.673 15.514">
  <path id="dash-book" d="M0,12.808V2.706A2.422,2.422,0,0,1,2.731,0h14.2a2.428,2.428,0,0,1,2.739,2.706v10.1a2.428,2.428,0,0,1-2.739,2.706H2.731A2.425,2.425,0,0,1,0,12.808Zm6.624,1.054V1.652H2.839a1.067,1.067,0,0,0-1.187,1.2v9.8a1.067,1.067,0,0,0,1.187,1.2ZM8.193,1.652v12.21h8.633a1.067,1.067,0,0,0,1.187-1.2v-9.8a1.067,1.067,0,0,0-1.187-1.2ZM3.3,4.69a.557.557,0,0,1-.548-.54A.55.55,0,0,1,3.3,3.619H5a.55.55,0,0,1,.548.531A.557.557,0,0,1,5,4.69H3.3Zm0,2.233a.536.536,0,1,1,0-1.071H5A.536.536,0,1,1,5,6.923H3.3Zm0,2.225a.527.527,0,1,1,0-1.054H5A.527.527,0,1,1,5,9.147Z" fill="#979797"/>
</svg>
