<svg xmlns="http://www.w3.org/2000/svg" width="50.974" height="55.335" viewBox="0 0 50.974 55.335">
  <g id="detailed1" transform="translate(-4.125 -3)">
    <path id="Path_90" data-name="Path 90" d="M13.465,56.835h6.542a1.094,1.094,0,0,0,1.09-1.09V5.59a1.094,1.094,0,0,0-1.09-1.09H13.465a1.094,1.094,0,0,0-1.09,1.09V55.745A1.094,1.094,0,0,0,13.465,56.835Z" transform="translate(6.334 0)" fill="none" stroke="#ffc403" stroke-width="3"/>
    <path id="Path_91" data-name="Path 91" d="M6.715,42.056h6.542a1.094,1.094,0,0,0,1.09-1.09V21.34a1.094,1.094,0,0,0-1.09-1.09H6.715a1.094,1.094,0,0,0-1.09,1.09V40.966A1.094,1.094,0,0,0,6.715,42.056Z" transform="translate(0 14.779)" fill="none" stroke="#ffc403" stroke-width="3"/>
    <path id="Path_92" data-name="Path 92" d="M20.229,46.279h6.515a1.1,1.1,0,0,0,1.1-1.1V16.854a1.1,1.1,0,0,0-1.1-1.1H20.229a1.1,1.1,0,0,0-1.1,1.1V45.175A1.1,1.1,0,0,0,20.229,46.279Z" transform="translate(12.667 10.556)" fill="none" stroke="#ffc403" stroke-width="3"/>
    <path id="Path_93" data-name="Path 93" d="M25.875,10.1v41.4a1.1,1.1,0,0,0,1.1,1.1h6.515a1.1,1.1,0,0,0,1.1-1.1V10.1a1.1,1.1,0,0,0-1.1-1.1H26.979A1.1,1.1,0,0,0,25.875,10.1Z" transform="translate(19.001 4.222)" fill="none" stroke="#ffc403" stroke-width="3"/>
  </g>
</svg>
