<svg xmlns="http://www.w3.org/2000/svg" width="58.558" height="51.66" viewBox="0 0 58.558 51.66">
  <g id="footerlogo" transform="translate(0 1.008)">
    <path id="Path_1" data-name="Path 1" d="M895.151,387.754h37.978l-6.687-11.681h18.323s-23.968-3.405-38.84,0-17.453,7.639-18.928,9.606-1.188,8.4,3.524,11.718,14.176,5.572,14.176,5.572-7.159-2.506-9.545-6.309S895.151,387.754,895.151,387.754Z" transform="translate(-886.207 -352.317)" fill="#2247ed"/>
    <path id="Path_2" data-name="Path 2" d="M945.867,380.064l3.3,5.8H927.018a54.2,54.2,0,0,1,9.152-3.931A52.678,52.678,0,0,1,945.867,380.064Z" transform="translate(-911.436 -355.72)" fill="#010600"/>
    <path id="Path_3" data-name="Path 3" d="M923.036,338.153l6.484-1.176,6.232-11.848,5.623,11.848,6.63,1.176L935.752,316.3Z" transform="translate(-908.974 -316.304)" fill="none" stroke="#fff" stroke-width="1"/>
  </g>
</svg>
