<svg xmlns="http://www.w3.org/2000/svg" width="87.2" height="37.6" viewBox="0 0 87.2 37.6">
  <g id="fox-tv" transform="translate(-6.4 -31.2)">
    <path id="Path_26" data-name="Path 26" d="M29.3,50.1A17.853,17.853,0,1,1,47.2,68.3,18.076,18.076,0,0,1,29.3,50.1ZM6.4,68.8V31.2H28.9l.7,10.3H17v4.9H27.3V56.5H17V68.7H6.4Zm87.2-.1L82.3,49.3,92.6,31.4H81.2l-4.6,8-4.7-8H60.4l10.4,18L59.7,68.7H71.1l5.4-9.3,5.4,9.3ZM50.3,57.5V42.6a3.162,3.162,0,0,0-3.1-3.3,3.214,3.214,0,0,0-3,3.3V57.5a3.009,3.009,0,0,0,3,3,2.914,2.914,0,0,0,3.1-3Z" fill="#fff" fill-rule="evenodd"/>
  </g>
</svg>
