<svg id="vuesax_outline_trend-up" data-name="vuesax/outline/trend-up" xmlns="http://www.w3.org/2000/svg" width="13" height="13" viewBox="0 0 13 13">
  <g id="trend-up">
    <path id="Vector" d="M.4,3.519A.4.4,0,0,1,.118,3.4a.409.409,0,0,1,0-.574L1.851,1.093A.4.4,0,0,1,2.176.974a.406.406,0,0,1,.3.179l.59.888L4.987.118a.406.406,0,0,1,.574.574L3.287,2.967a.4.4,0,0,1-.325.119.406.406,0,0,1-.3-.179l-.59-.888L.692,3.4A.4.4,0,0,1,.4,3.519Z" transform="translate(3.658 4.741)" fill="#077d13"/>
    <path id="Vector-2" data-name="Vector" d="M1.49,1.9a.409.409,0,0,1-.406-.406V.813H.406A.409.409,0,0,1,0,.406.409.409,0,0,1,.406,0H1.49A.409.409,0,0,1,1.9.406V1.49A.409.409,0,0,1,1.49,1.9Z" transform="translate(7.448 4.74)" fill="#077d13"/>
    <path id="Vector-3" data-name="Vector" d="M7.448,11.646H4.2c-2.941,0-4.2-1.257-4.2-4.2V4.2C0,1.257,1.257,0,4.2,0h3.25c2.941,0,4.2,1.257,4.2,4.2v3.25C11.646,10.389,10.389,11.646,7.448,11.646ZM4.2.813C1.7.813.812,1.7.812,4.2v3.25c0,2.5.888,3.385,3.385,3.385h3.25c2.5,0,3.385-.888,3.385-3.385V4.2c0-2.5-.888-3.385-3.385-3.385Z" transform="translate(0.677 0.677)" fill="#077d13"/>
    <path id="Vector-4" data-name="Vector" d="M0,0H13V13H0Z" fill="none" opacity="0"/>
  </g>
</svg>
