<svg xmlns="http://www.w3.org/2000/svg" width="60" height="60" viewBox="0 0 60 60">
  <g id="Group_40804" data-name="Group 40804" transform="translate(-748 -352)">
    <g id="Ellipse_4825" data-name="Ellipse 4825" transform="translate(748 352)" fill="#2247ed" stroke="#707070" stroke-width="1" opacity="0.03">
      <circle cx="30" cy="30" r="30" stroke="none"/>
      <circle cx="30" cy="30" r="29.5" fill="none"/>
    </g>
    <path id="Icon_awesome-wordpress-simple" data-name="Icon awesome-wordpress-simple" d="M10.982.563A10.42,10.42,0,1,0,21.4,10.982,10.432,10.432,0,0,0,10.982.563Zm-9.37,10.42a9.3,9.3,0,0,1,.811-3.811l4.47,12.243A9.377,9.377,0,0,1,1.613,10.982Zm9.37,9.37a9.333,9.333,0,0,1-2.647-.382L11.146,11.8l2.878,7.891a1.266,1.266,0,0,0,.067.13A9.38,9.38,0,0,1,10.982,20.352Zm1.29-13.76c.563-.029,1.071-.088,1.071-.088a.388.388,0,0,0-.059-.773s-1.517.118-2.5.118c-.92,0-2.466-.118-2.466-.118a.388.388,0,0,0-.059.773s.479.059.983.088l1.458,4-2.05,6.147L5.243,6.592C5.806,6.562,6.314,6.5,6.314,6.5a.388.388,0,0,0-.059-.773s-1.517.118-2.5.118c-.176,0-.382,0-.605-.013A9.369,9.369,0,0,1,17.31,4.071a1.187,1.187,0,0,0-.122-.008,1.622,1.622,0,0,0-1.571,1.664,4.388,4.388,0,0,0,.92,2.2,4.917,4.917,0,0,1,.773,2.584,11.249,11.249,0,0,1-.714,3.029l-.933,3.122L12.272,6.592Zm3.42,12.487,2.861-8.273a8.862,8.862,0,0,0,.714-3.357,6.9,6.9,0,0,0-.063-.962,9.37,9.37,0,0,1-3.513,12.592Z" transform="translate(767.018 371.018)" opacity="0.8"/>
  </g>
</svg>
