<svg xmlns="http://www.w3.org/2000/svg" width="60" height="60" viewBox="0 0 60 60">
  <g id="Group_40802" data-name="Group 40802" transform="translate(-748 -257)">
    <g id="Ellipse_4826" data-name="Ellipse 4826" transform="translate(748 257)" fill="#2247ed" stroke="#707070" stroke-width="1" opacity="0.03">
      <circle cx="30" cy="30" r="30" stroke="none"/>
      <circle cx="30" cy="30" r="29.5" fill="none"/>
    </g>
    <path id="Icon_material-monetization-on" data-name="Icon material-monetization-on" d="M15.515,3A12.515,12.515,0,1,0,28.03,15.515,12.519,12.519,0,0,0,15.515,3Z" transform="translate(762.484 271.485)" fill="none" stroke="#000" stroke-width="2" opacity="0.8"/>
    <path id="Icon_metro-money" data-name="Icon metro-money" d="M15.259,13.01c-1.892-.492-2.5-1-2.5-1.788,0-.908.837-1.546,2.25-1.546,1.483,0,2.033.708,2.083,1.75h1.842a3.317,3.317,0,0,0-2.675-3.175V6.427h-2.5v1.8c-1.617.354-2.917,1.4-2.917,3.008,0,1.925,1.6,2.883,3.917,3.442,2.087.5,2.5,1.229,2.5,2.012,0,.571-.4,1.488-2.25,1.488-1.717,0-2.4-.771-2.483-1.75H10.688a3.5,3.5,0,0,0,3.071,3.192v1.808h2.5V19.635c1.621-.312,2.917-1.25,2.917-2.962,0-2.358-2.025-3.167-3.917-3.663Z" transform="translate(763.07 273.073)" opacity="0.8"/>
  </g>
</svg>
