<svg xmlns="http://www.w3.org/2000/svg" width="39.239" height="34.949" viewBox="0 0 39.239 34.949">
  <g id="Group_40779" data-name="Group 40779" transform="translate(0 1.008)">
    <path id="Path_1" data-name="Path 1" d="M892.2,383.4h25.449l-4.481-7.827h12.278s-16.061-2.282-26.026,0-11.7,5.119-12.684,6.437-.8,5.628,2.361,7.852,9.5,3.734,9.5,3.734-4.8-1.679-6.4-4.228S892.2,383.4,892.2,383.4Z" transform="translate(-886.207 -359.655)" fill="#2247ed"/>
    <path id="Path_2" data-name="Path 2" d="M939.648,380.064l2.211,3.883H927.018a36.318,36.318,0,0,1,6.133-2.634A35.3,35.3,0,0,1,939.648,380.064Z" transform="translate(-916.576 -363.751)" fill="#43423c"/>
    <path id="Path_3" data-name="Path 3" d="M923.036,330.945l4.345-.788,4.176-7.939,3.768,7.939,4.443.788L931.557,316.3Z" transform="translate(-913.613 -316.304)" fill="none" stroke="#fff" stroke-width="1"/>
  </g>
</svg>
