<svg xmlns="http://www.w3.org/2000/svg" width="60" height="60" viewBox="0 0 60 60">
  <g id="Group_40803" data-name="Group 40803" transform="translate(-748 -257)">
    <g id="Ellipse_4826" data-name="Ellipse 4826" transform="translate(748 257)" fill="#2247ed" stroke="#707070" stroke-width="1" opacity="0.03">
      <circle cx="30" cy="30" r="30" stroke="none"/>
      <circle cx="30" cy="30" r="29.5" fill="none"/>
    </g>
    <path id="Icon_material-autorenew" data-name="Icon material-autorenew" d="M16.551,8.094v3.957l5.275-5.275L16.551,1.5V5.457A10.532,10.532,0,0,0,7.635,21.626L9.561,19.7a7.742,7.742,0,0,1-.923-3.693A7.919,7.919,0,0,1,16.551,8.094Zm8.916,2.295-1.926,1.926a7.9,7.9,0,0,1-6.99,11.606V19.964L11.275,25.24l5.275,5.275V26.558a10.532,10.532,0,0,0,8.916-16.169Z" transform="translate(761.449 272)" opacity="0.8"/>
  </g>
</svg>
