<svg xmlns="http://www.w3.org/2000/svg" width="60" height="60" viewBox="0 0 60 60">
  <g id="Group_40786" data-name="Group 40786" transform="translate(-408 -162)">
    <g id="Ellipse_4822" data-name="Ellipse 4822" transform="translate(408 162)" fill="#2247ed" stroke="#707070" stroke-width="1" opacity="0.03">
      <circle cx="30" cy="30" r="30" stroke="none"/>
      <circle cx="30" cy="30" r="29.5" fill="none"/>
    </g>
    <g id="Icon_feather-globe" data-name="Icon feather-globe" transform="translate(423 177)" opacity="0.8">
      <path id="Path_41461" data-name="Path 41461" d="M27,15A12,12,0,1,1,15,3,12,12,0,0,1,27,15Z" transform="translate(0 0)" fill="none" stroke="#000" stroke-linecap="round" stroke-linejoin="round" stroke-width="2"/>
      <path id="Path_41462" data-name="Path 41462" d="M3,18H27" transform="translate(0 -3)" fill="none" stroke="#000" stroke-linecap="round" stroke-linejoin="round" stroke-width="2"/>
      <path id="Path_41463" data-name="Path 41463" d="M16.8,3a18.36,18.36,0,0,1,4.8,12,18.36,18.36,0,0,1-4.8,12A18.36,18.36,0,0,1,12,15,18.36,18.36,0,0,1,16.8,3Z" transform="translate(-1.8)" fill="none" stroke="#000" stroke-linecap="round" stroke-linejoin="round" stroke-width="2"/>
    </g>
  </g>
</svg>
