<svg xmlns="http://www.w3.org/2000/svg" width="60" height="60" viewBox="0 0 60 60">
  <g id="Group_40783" data-name="Group 40783" transform="translate(-748 -162)">
    <g id="Ellipse_4827" data-name="Ellipse 4827" transform="translate(748 162)" fill="#2247ed" stroke="#707070" stroke-width="1" opacity="0.03">
      <circle cx="30" cy="30" r="30" stroke="none"/>
      <circle cx="30" cy="30" r="29.5" fill="none"/>
    </g>
    <path id="_189065750116276482813764" data-name="189065750116276482813764" d="M25.423,16.691a.5.5,0,0,0,.5-.5V12.433a1.687,1.687,0,0,0-1.683-1.683H4.433A1.687,1.687,0,0,0,2.75,12.433V16.2a.5.5,0,0,0,.5.5,2.475,2.475,0,0,1,0,4.95.5.5,0,0,0-.5.5V25.9a1.687,1.687,0,0,0,1.683,1.683h19.8A1.687,1.687,0,0,0,25.918,25.9V22.136a.5.5,0,0,0-.5-.5,2.475,2.475,0,0,1,0-4.95Zm-11.584,9.9H4.433A.7.7,0,0,1,3.74,25.9V22.6a3.465,3.465,0,0,0,0-6.859v-3.3a.7.7,0,0,1,.693-.693h9.406v2.97H11.562a1.687,1.687,0,0,0-1.683,1.683v5.544a1.687,1.687,0,0,0,1.683,1.683h2.277ZM17.106,15.7a.7.7,0,0,1,.693.693v5.544a.7.7,0,0,1-.693.693H11.562a.7.7,0,0,1-.693-.693V16.393a.7.7,0,0,1,.693-.693Zm4.851,3.465a3.473,3.473,0,0,0,2.97,3.43v3.3a.7.7,0,0,1-.693.693H14.829v-2.97h2.277a1.687,1.687,0,0,0,1.683-1.683V16.393a1.687,1.687,0,0,0-1.683-1.683H14.829V11.74h9.406a.7.7,0,0,1,.693.693v3.3a3.473,3.473,0,0,0-2.97,3.43Z" transform="translate(763.666 172.834)" stroke="#000" stroke-width="0.7" opacity="0.8"/>
  </g>
</svg>
