<svg xmlns="http://www.w3.org/2000/svg" width="60" height="60" viewBox="0 0 60 60">
  <g id="Group_40801" data-name="Group 40801" transform="translate(-748 -162)">
    <g id="Ellipse_4827" data-name="Ellipse 4827" transform="translate(748 162)" fill="#2247ed" stroke="#707070" stroke-width="1" opacity="0.03">
      <circle cx="30" cy="30" r="30" stroke="none"/>
      <circle cx="30" cy="30" r="29.5" fill="none"/>
    </g>
    <g id="Icon_feather-calendar" data-name="Icon feather-calendar" transform="translate(763.6 177)" opacity="0.8">
      <path id="Path_21922" data-name="Path 21922" d="M6.7,6H22.1a2.157,2.157,0,0,1,2.2,2.111V22.889A2.157,2.157,0,0,1,22.1,25H6.7a2.157,2.157,0,0,1-2.2-2.111V8.111A2.157,2.157,0,0,1,6.7,6Z" fill="none" stroke="#070808" stroke-linecap="round" stroke-linejoin="round" stroke-width="2"/>
      <path id="Path_21923" data-name="Path 21923" d="M24,3V9" transform="translate(-5.2)" fill="none" stroke="#070808" stroke-linecap="round" stroke-linejoin="round" stroke-width="2"/>
      <path id="Path_21924" data-name="Path 21924" d="M12,3V9" transform="translate(-2)" fill="none" stroke="#070808" stroke-linecap="round" stroke-linejoin="round" stroke-width="2"/>
      <path id="Path_21925" data-name="Path 21925" d="M4.5,15H24.3" transform="translate(0 -3.2)" fill="none" stroke="#070808" stroke-linecap="round" stroke-linejoin="round" stroke-width="2"/>
    </g>
  </g>
</svg>
