<svg xmlns="http://www.w3.org/2000/svg" width="45" height="45" viewBox="0 0 45 45">
  <path id="iglogo" d="M22.5,45A22.5,22.5,0,0,1,6.591,6.591,22.5,22.5,0,1,1,38.409,38.409,22.35,22.35,0,0,1,22.5,45Zm.006-33.753c-3,0-3.41.013-4.641.068a8.235,8.235,0,0,0-2.728.522,5.519,5.519,0,0,0-2,1.3,5.58,5.58,0,0,0-1.3,1.994,8.266,8.266,0,0,0-.522,2.73c-.058,1.208-.072,1.61-.072,4.643,0,3,.013,3.406.065,4.638a8.3,8.3,0,0,0,.524,2.73,5.5,5.5,0,0,0,1.3,2,5.6,5.6,0,0,0,1.991,1.3,8.369,8.369,0,0,0,2.728.522c1.195.053,1.593.066,4.64.066s3.443-.013,4.636-.066a8.34,8.34,0,0,0,2.732-.522,5.766,5.766,0,0,0,3.292-3.295,8.3,8.3,0,0,0,.522-2.73c.055-1.221.068-1.623.068-4.638,0-3.1,0-3.443-.058-4.638a8.232,8.232,0,0,0-.523-2.73,5.483,5.483,0,0,0-1.3-2,5.582,5.582,0,0,0-1.991-1.294,8.208,8.208,0,0,0-2.73-.524C25.934,11.262,25.532,11.247,22.506,11.247Zm0,20.484c-3.044,0-3.392-.016-4.543-.066a6.258,6.258,0,0,1-2.092-.386,3.513,3.513,0,0,1-1.291-.841,3.458,3.458,0,0,1-.841-1.294,6.157,6.157,0,0,1-.386-2.087c-.055-1.191-.066-1.548-.066-4.547s.011-3.359.066-4.545a6.166,6.166,0,0,1,.386-2.089,3.426,3.426,0,0,1,.844-1.292,3.473,3.473,0,0,1,1.293-.839,6.113,6.113,0,0,1,2.087-.388c1.161-.051,1.51-.066,4.546-.066s3.391.015,4.543.066a6.164,6.164,0,0,1,2.093.388,3.716,3.716,0,0,1,2.131,2.131,6.226,6.226,0,0,1,.389,2.089c.053,1.206.063,1.564.063,4.545s-.011,3.338-.063,4.543a6.255,6.255,0,0,1-.389,2.089,3.747,3.747,0,0,1-2.137,2.138,6.253,6.253,0,0,1-2.089.386C25.9,31.716,25.547,31.732,22.509,31.732Zm0-15.01A5.781,5.781,0,1,0,28.286,22.5,5.788,5.788,0,0,0,22.506,16.722Zm6.01-1.579a1.35,1.35,0,1,0,1.348,1.35A1.352,1.352,0,0,0,28.515,15.143Zm-6.01,11.11a3.75,3.75,0,1,1,3.749-3.75A3.755,3.755,0,0,1,22.506,26.253Z" fill="#fff"/>
</svg>
