<svg xmlns="http://www.w3.org/2000/svg" width="50.308" height="44.524" viewBox="0 0 50.308 44.524">
  <g id="main-logo" transform="translate(-561.633 -239.296)">
    <path id="Path_1" data-name="Path 1" d="M893.891,385.9h32.628l-5.745-10.035h15.741s-20.591-2.926-33.368,0-14.995,6.563-16.262,8.253-1.021,7.216,3.027,10.067,12.179,4.787,12.179,4.787-6.15-2.153-8.2-5.421S893.891,385.9,893.891,385.9Z" transform="translate(-324.574 -115.147)" fill="#2247ed"/>
    <path id="Path_2" data-name="Path 2" d="M943.211,380.064l2.834,4.979H927.018a46.565,46.565,0,0,1,7.863-3.377A45.258,45.258,0,0,1,943.211,380.064Z" transform="translate(-351.998 -118.846)" fill="#0c0a2a"/>
    <path id="Path_3" data-name="Path 3" d="M923.036,335.075l5.57-1.011,5.354-10.179,4.831,10.179,5.7,1.011L933.961,316.3Z" transform="translate(-349.323 -76)" fill="none" stroke="#fff" stroke-width="1"/>
  </g>
</svg>
