<svg xmlns="http://www.w3.org/2000/svg" width="61.812" height="43" viewBox="0 0 61.812 43">
  <g id="minimumpay" transform="translate(-10.667 -85.333)">
    <path id="Path_96" data-name="Path 96" d="M65.761,85.333H17.386a6.726,6.726,0,0,0-6.719,6.719v29.562a6.727,6.727,0,0,0,6.719,6.719H65.761a6.727,6.727,0,0,0,6.719-6.719V92.052A6.726,6.726,0,0,0,65.761,85.333ZM13.354,96.083H69.792v4.031H13.354Zm0-4.031a4.036,4.036,0,0,1,4.031-4.031H65.761a4.036,4.036,0,0,1,4.031,4.031V93.4H13.354Zm56.437,29.562a4.036,4.036,0,0,1-4.031,4.031H17.386a4.036,4.036,0,0,1-4.031-4.031V102.8H69.792Z" fill="#ffc403"/>
    <path id="Path_97" data-name="Path 97" d="M65.344,258.687H74.75a1.344,1.344,0,1,0,0-2.687H65.344a1.344,1.344,0,1,0,0,2.688Z" transform="translate(-46.614 -149.167)" fill="#ffc403"/>
    <path id="Path_98" data-name="Path 98" d="M354.687,317.4h6.719a2.69,2.69,0,0,0,2.688-2.687v-2.687a2.69,2.69,0,0,0-2.687-2.687h-6.719A2.69,2.69,0,0,0,352,312.021v2.687A2.69,2.69,0,0,0,354.687,317.4Zm0-5.375h6.719v2.688h-6.719l0-2.687Z" transform="translate(-298.333 -195.782)" fill="#ffc403"/>
  </g>
</svg>
