<svg xmlns="http://www.w3.org/2000/svg" width="98.684" height="42.7" viewBox="0 0 98.684 42.7">
  <g id="msn" transform="translate(-0.516 -28.687)">
    <g id="msn-2" data-name="msn" transform="translate(-186.784 -1561.013)">
      <path id="path3011_2_" d="M191.9,1632.4c-2.5,0-4.6-1.6-4.6-5.1,0-5.5,4.7-9.7,6.9-10.8a44.388,44.388,0,0,0,6.1,2.8,22.187,22.187,0,0,1-10.1-18.9c0-7.4,3.9-10.7,7.4-10.7,2.8,0,9.6,3.1,9.6,15.1-.1,12.8-6.8,27.6-15.3,27.6Z" fill="#fff"/>
      <path id="path3021_2_" d="M202.7,1628.3c0,1.9.6,2.6,1.6,2.6,2.5,0,6.5-5.8,6.3-11.9,3.8-4,8.3-10.2,8.3-15.2,0-1.2-.3-2.2-1.8-2.2-2.2,0-5.3,3.8-7.3,7.5-1.9,3.9-3.7,8.3-6.1,14.4a17.153,17.153,0,0,0-1,4.8Z" fill="#fff"/>
    </g>
    <g id="Group_9" data-name="Group 9">
      <path id="Path_6" data-name="Path 6" d="M63.3,63.2V52.7a8.265,8.265,0,0,0-.9-4.4,3.552,3.552,0,0,0-3.1-1.4,3.843,3.843,0,0,0-3.2,1.8,6.91,6.91,0,0,0-1.3,4.1V63.2H51.9V52.3c0-3.6-1.4-5.3-4.1-5.3a3.683,3.683,0,0,0-3.1,1.7,7,7,0,0,0-1.3,4.2V63.3H40.5V45h2.9v2.9h.1a6.241,6.241,0,0,1,5.7-3.3,5.533,5.533,0,0,1,3.2,1,5.055,5.055,0,0,1,1.9,2.8,6.652,6.652,0,0,1,6.1-3.8c4.1,0,6,2.5,6,7.5V63.3H63.3Zm10.7.5a8.6,8.6,0,0,1-4.6-1.1V59.5a8.585,8.585,0,0,0,4.8,1.8c1.9,0,3.4-.6,3.4-2.5,0-4-8.1-2.8-8.1-8.8,0-2.9,2.4-5.4,6.4-5.4a9.361,9.361,0,0,1,4,.9v2.9a7.748,7.748,0,0,0-4.1-1.3c-2,0-3.2,1.1-3.2,2.6,0,4.1,8.2,2.6,8.2,8.7C80.7,61.1,78.7,63.7,74,63.7Zm25.1-.5H96.2V52.8c0-3.9-1.4-5.8-4.2-5.8a4.458,4.458,0,0,0-3.6,1.7,6.433,6.433,0,0,0-1.5,4.1V63.2H84V44.9h2.9v3H87a6.692,6.692,0,0,1,6-3.5,5.621,5.621,0,0,1,4.6,1.9,8.893,8.893,0,0,1,1.6,5.6V63.2Z" fill="#fff"/>
      <path id="Path_7" data-name="Path 7" d="M60.2,44.6a6.652,6.652,0,0,0-6.1,3.8,6.1,6.1,0,0,0-1.9-2.8,5.533,5.533,0,0,0-3.2-1,6.241,6.241,0,0,0-5.7,3.3h-.1V45H40.3V63.2h2.9V52.9a6.782,6.782,0,0,1,1.3-4.2A3.683,3.683,0,0,1,47.6,47c2.8,0,4.1,1.8,4.1,5.3V63.2h2.9V52.8a6.689,6.689,0,0,1,1.3-4.1,3.843,3.843,0,0,1,3.2-1.8,3.435,3.435,0,0,1,3.1,1.4,8.265,8.265,0,0,1,.9,4.4V63.2H66V52C66.2,47.1,64.3,44.6,60.2,44.6Z" fill="#fff"/>
      <path id="Path_8" data-name="Path 8" d="M92.9,44.5a6.692,6.692,0,0,0-6,3.5h-.1V45H83.9V63.2h2.9V52.8a6.229,6.229,0,0,1,1.5-4.1A4.458,4.458,0,0,1,91.9,47c2.9,0,4.2,1.9,4.2,5.8V63.2H99V52a8.893,8.893,0,0,0-1.6-5.6A5.171,5.171,0,0,0,92.9,44.5Z" fill="#fff"/>
      <path id="Path_9" data-name="Path 9" d="M72.5,49.6c0-1.5,1.2-2.6,3.2-2.6a7.335,7.335,0,0,1,4.1,1.3V45.4a9.361,9.361,0,0,0-4-.9c-4,0-6.4,2.5-6.4,5.4,0,6,8.1,4.8,8.1,8.8,0,1.8-1.5,2.5-3.4,2.5a9.5,9.5,0,0,1-4.8-1.8v3.1a8.6,8.6,0,0,0,4.6,1.1c4.6,0,6.6-2.6,6.6-5.3C80.7,52.2,72.5,53.7,72.5,49.6Z" fill="#fff"/>
    </g>
  </g>
</svg>
