<svg xmlns="http://www.w3.org/2000/svg" width="50.6" height="49.981" viewBox="0 0 50.6 49.981">
  <g id="nbc" transform="translate(-24.7 -25.035)">
    <path id="Path_27" data-name="Path 27" d="M30,53.7a5.357,5.357,0,0,1-5.3-5.4A5.209,5.209,0,0,1,30,43a4.979,4.979,0,0,1,2.9.9h0l14.5,9.8Z" fill="#fff"/>
    <path id="Path_28" data-name="Path 28" d="M31.5,41.7a5.388,5.388,0,0,1-1.2-7.5,5.244,5.244,0,0,1,7-1.5,4.96,4.96,0,0,1,2,2.3h0l7.5,16.9Z" fill="#fff"/>
    <path id="Path_29" data-name="Path 29" d="M70,53.7a5.3,5.3,0,1,0,0-10.6,4.979,4.979,0,0,0-2.9.9h0L52.5,53.8Z" fill="#fff"/>
    <path id="Path_30" data-name="Path 30" d="M68.5,41.7a5.354,5.354,0,1,0-5.8-9,4.96,4.96,0,0,0-2,2.3h0L53.2,52,68.5,41.7Z" fill="#fff"/>
    <path id="Path_31" data-name="Path 31" d="M52.1,31.6a1.876,1.876,0,0,0-1.2,2.3h0l2.2,15.8,7.5-17.2h0a5.359,5.359,0,0,0-2.7-7,5.274,5.274,0,0,0-7,2.7,5.112,5.112,0,0,0-.4,2.7h1.4c.8.1,1.2.3.2.7Z" fill="#fff"/>
    <path id="Path_32" data-name="Path 32" d="M39.3,32.5a5.359,5.359,0,0,1,2.7-7,5.274,5.274,0,0,1,7,2.7h0a5.136,5.136,0,0,1,.4,3h0L46.7,49.7,39.3,32.5Z" fill="#fff"/>
    <path id="Path_33" data-name="Path 33" d="M72,74.3a9.39,9.39,0,1,1-4.2-18h.9A9.283,9.283,0,0,1,72,57h0v3.6h0a6.075,6.075,0,1,0,0,10.2h0v3.5Z" fill="#fff"/>
    <path id="Path_34" data-name="Path 34" d="M39.2,56.9h3.6V74.7L31.7,64.6v9.7H28.1V56.5L39.2,66.7Z" fill="#fff"/>
    <path id="Path_35" data-name="Path 35" d="M55,65a4.124,4.124,0,0,0,2.1-3.7c0-2.7-2.2-4.5-4.9-4.5H45V74.3h8a4.846,4.846,0,0,0,5-4.8v-.2A4.642,4.642,0,0,0,55,65Zm-6.4-5.5h2.7a2.31,2.31,0,0,1,2.1,2.4A2.344,2.344,0,0,1,51.3,64H48.6V59.5Zm3.3,12.2H48.6v-5h3.3a2.476,2.476,0,0,1,2.5,2.5,2.361,2.361,0,0,1-2.5,2.5Z" fill="#fff"/>
  </g>
</svg>
