<svg xmlns="http://www.w3.org/2000/svg" width="27.118" height="29.866" viewBox="0 0 27.118 29.866">
  <g id="playstore" transform="translate(-3400 -5778)">
    <g id="playstore-2" data-name="playstore" transform="translate(3376.451 5778)">
      <g id="Group_1478" data-name="Group 1478" transform="translate(23.549 0.001)">
        <path id="Path_1431" data-name="Path 1431" d="M67.468,10.256C64,8.315,58.43,5.2,49.793.363A2.082,2.082,0,0,0,47.962.124L62.781,14.943Z" transform="translate(-46.538 -0.012)" fill="#32bbff"/>
        <path id="Path_1432" data-name="Path 1432" d="M24.973,1.93a2.129,2.129,0,0,0-.315.135,2.084,2.084,0,0,0-1.109,1.853V29.581a2.084,2.084,0,0,0,1.109,1.853,2.155,2.155,0,0,0,.315.135L39.792,16.749Z" transform="translate(-23.549 -1.818)" fill="#32bbff"/>
        <path id="Path_1433" data-name="Path 1433" d="M62.775,255.98,47.956,270.8a2.061,2.061,0,0,0,1.832-.239c8.376-4.69,13.882-7.769,17.392-9.726l.288-.162Z" transform="translate(-46.532 -241.049)" fill="#32bbff"/>
      </g>
      <path id="Path_1434" data-name="Path 1434" d="M23.549,255.98v12.832a2.084,2.084,0,0,0,1.109,1.853,2.159,2.159,0,0,0,.315.135L39.792,255.98Z" transform="translate(0 -241.048)" fill="#2c9fd9"/>
      <path id="Path_1435" data-name="Path 1435" d="M44.707.352a2.089,2.089,0,0,0-2.146-.1L57.47,15.157l4.912-4.912C58.913,8.3,53.344,5.188,44.707.352Z" transform="translate(-17.903 0)" fill="#29cc5e"/>
      <path id="Path_1436" data-name="Path 1436" d="M57.47,252.126,42.561,267.035a2.075,2.075,0,0,0,2.146-.1c8.376-4.69,13.882-7.769,17.392-9.726l.288-.162Z" transform="translate(-17.903 -237.419)" fill="#d93f21"/>
      <path id="Path_1437" data-name="Path 1437" d="M305.628,177.706a2.078,2.078,0,0,0-1.07-1.827s-1.33-.742-5.406-3.022l-4.849,4.849,4.853,4.853c4.032-2.264,5.4-3.027,5.4-3.027A2.078,2.078,0,0,0,305.628,177.706Z" transform="translate(-254.961 -162.774)" fill="#ffd500"/>
      <path id="Path_1438" data-name="Path 1438" d="M304.558,257.807a2.078,2.078,0,0,0,1.07-1.827H294.3l4.853,4.853C303.188,258.57,304.558,257.807,304.558,257.807Z" transform="translate(-254.961 -241.048)" fill="#fa0"/>
    </g>
  </g>
</svg>
