<svg id="subscribers-dash" xmlns="http://www.w3.org/2000/svg" width="32" height="32" viewBox="0 0 32 32">
  <path id="Vector" d="M0,0H32V32H0Z" fill="none" opacity="0"/>
  <path id="Vector-2" data-name="Vector" d="M3.987,7.693a.985.985,0,0,0-.28,0,3.86,3.86,0,1,1,.28,0Z" transform="translate(19.387 2.667)" fill="#fff"/>
  <path id="Vector-3" data-name="Vector" d="M5.587,6.257a8.279,8.279,0,0,1-5.52,1.12A8.708,8.708,0,0,0,.853,3.79,8.193,8.193,0,0,0,0,.083,8.316,8.316,0,0,1,5.573,1.19C7.68,2.577,7.68,4.857,5.587,6.257Z" transform="translate(22.133 13.343)" fill="#fff"/>
  <path id="Vector-4" data-name="Vector" d="M0,3.853a3.847,3.847,0,1,1,3.987,3.84.985.985,0,0,0-.28,0A3.832,3.832,0,0,1,0,3.853Z" transform="translate(4.88 2.667)" fill="#fff"/>
  <path id="Vector-5" data-name="Vector" d="M6.073,3.79A8.683,8.683,0,0,0,6.86,7.417,8.239,8.239,0,0,1,1.58,6.27c-2.107-1.4-2.107-3.68,0-5.08A8.188,8.188,0,0,1,6.913.057,8.477,8.477,0,0,0,6.073,3.79Z" transform="translate(2.66 13.343)" fill="#fff"/>
  <path id="Vector-6" data-name="Vector" d="M4.76,9.16a1.506,1.506,0,0,0-.347,0,4.6,4.6,0,1,1,.347,0Z" transform="translate(11.4 12)" fill="#fff"/>
  <path id="Vector-7" data-name="Vector" d="M9.857,1.15c2.013,1.333,2.013,3.547,0,4.893a8.148,8.148,0,0,1-8.347,0C-.5,4.71-.5,2.5,1.51,1.15a8.147,8.147,0,0,1,8.347,0Z" transform="translate(10.317 22.77)" fill="#fff"/>
</svg>
