<svg xmlns="http://www.w3.org/2000/svg" width="45" height="45" viewBox="0 0 45 45">
  <path id="tweetlogo" d="M22.5,45A22.5,22.5,0,0,1,6.591,6.591,22.5,22.5,0,1,1,38.409,38.409,22.35,22.35,0,0,1,22.5,45ZM11.251,29.571v0a13.132,13.132,0,0,0,20.2-11.059c0-.189-.005-.384-.016-.6a9.161,9.161,0,0,0,2.312-2.4,9.561,9.561,0,0,1-2.658.729A4.588,4.588,0,0,0,33.122,13.7,9.222,9.222,0,0,1,30.2,14.818a4.611,4.611,0,0,0-7.977,3.156,4.731,4.731,0,0,0,.105,1.052A13.11,13.11,0,0,1,12.817,14.2a4.613,4.613,0,0,0,1.418,6.164A4.586,4.586,0,0,1,12.15,19.8v.052a4.642,4.642,0,0,0,3.7,4.532,4.643,4.643,0,0,1-1.208.151,4.056,4.056,0,0,1-.875-.08,4.655,4.655,0,0,0,4.311,3.215,9.343,9.343,0,0,1-5.721,1.967A8.653,8.653,0,0,1,11.251,29.571Z" fill="#fff"/>
</svg>
