<svg xmlns="http://www.w3.org/2000/svg" width="98.7" height="34.9" viewBox="0 0 98.7 34.9">
  <g id="usa-today" transform="translate(-0.6 -32.5)">
    <path id="Path_36" data-name="Path 36" d="M79.2,51.6l-3.4,8.9a7.569,7.569,0,0,0,.1-1.5c0-7.2-7-7.4-7-7.4H62.1v5.6A8.227,8.227,0,0,0,54,51.3a8.483,8.483,0,0,0-6.8,3.3v-3H37v3.6h3.1V67h4.1V55.1h2.7a7.627,7.627,0,0,0-1.2,4.2,8.2,8.2,0,0,0,8.4,8.1,8.314,8.314,0,0,0,8.1-5.9V67h7.3a6.957,6.957,0,0,0,4.9-2.6l-1,2.6h4.2l1-2.6H84L85,67h4.2L83.3,51.6ZM54.1,63.5a4.11,4.11,0,1,1,4.4-4.1A4.389,4.389,0,0,1,54.1,63.5Zm13.6.1a5.5,5.5,0,0,1-1.2-.1V55.1c.3,0,.6-.1,1.2-.1s3.8.1,3.8,4.2C71.6,63.4,68.5,63.6,67.7,63.6Zm12-2.3,1.6-4.2h0l1.6,4.2Z" fill="#fff"/>
    <path id="Path_37" data-name="Path 37" d="M94.4,51.6l-2.7,4-2.7-4H84.1l5.3,8V67H94V59.6l5.3-8Z" fill="#fff"/>
    <path id="Path_38" data-name="Path 38" d="M55.4,43.8s1.9.2,1.6,1.7a1.591,1.591,0,0,1-2,1.2c-.3,0-1.4,0-3.4-1.6l-1.8,3.2a8.629,8.629,0,0,0,6,2.2A5.852,5.852,0,0,0,59.9,49l-.5,1.3h4.4l1-2.6h5.4l1,2.6h4.3L69.7,34.8H65.4l-3.8,9.7c-.1-2.9-2.9-3.8-4.5-4.2C54.9,39.7,55,39,55,38.8a1.341,1.341,0,0,1,1.5-1.2,6.171,6.171,0,0,1,2.9,1.2l1.7-3.1a8.968,8.968,0,0,0-5-1.5c-2.2,0-5.5.9-5.5,5.3C50.6,39.5,50.1,43.3,55.4,43.8Zm12.1-3.4,1.4,3.9h-3Z" fill="#fff"/>
    <path id="Path_39" data-name="Path 39" d="M64.8,50.5Z" fill="#fff"/>
    <path id="Path_40" data-name="Path 40" d="M43.5,50a6.872,6.872,0,0,0,6.8-6.8V34.7H46.4v9a2.9,2.9,0,0,1-5.8,0v-9H36.7v8.5A6.807,6.807,0,0,0,43.5,50Z" fill="#fff"/>
    <circle id="Ellipse_1" data-name="Ellipse 1" cx="17.3" cy="17.3" r="17.3" transform="translate(0.6 32.5)" fill="#fff"/>
  </g>
</svg>
