<svg xmlns="http://www.w3.org/2000/svg" xmlns:xlink="http://www.w3.org/1999/xlink" width="381" height="363" viewBox="0 0 381 363">
  <defs>
    <clipPath id="clip-path">
      <rect id="yellow-arrow" width="381" height="363" fill="#fff"/>
    </clipPath>
  </defs>
  <g id="_636b64f18c4c671e6e8948f5_flt01_1_1_" data-name="636b64f18c4c671e6e8948f5_flt01 1 (1)" clip-path="url(#clip-path)">
    <path id="Path_21854" data-name="Path 21854" d="M226.967,78.213a.727.727,0,0,1,.061.276.751.751,0,0,1-.05.278.726.726,0,0,1-.153.237.713.713,0,0,1-.232.161l-4,1.739a.727.727,0,0,1-.958-.372.715.715,0,0,1-.062-.277.728.728,0,0,1,.2-.519.73.73,0,0,1,.232-.163l4-1.739a.715.715,0,0,1,.278-.063.724.724,0,0,1,.282.05.725.725,0,0,1,.4.391Z" fill="#0087fe"/>
    <path id="Path_21855" data-name="Path 21855" d="M13.795,357.929a.722.722,0,0,1-.421-1.381l8.3-2.727a.722.722,0,0,1,.421,1.381Z" fill="#0087fe"/>
    <path id="Path_21856" data-name="Path 21856" d="M169.31,110.5c-2.379,1.7-4.716,3.438-6.988,5.217a.723.723,0,1,1-.89-1.139q3.433-2.693,7.038-5.248a.73.73,0,0,1,.26-.137.725.725,0,0,1,.57.074.733.733,0,0,1,.216.2.718.718,0,0,1,.119.268.71.71,0,0,1,0,.294.718.718,0,0,1-.114.27A.732.732,0,0,1,169.31,110.5Z" fill="#0087fe"/>
    <path id="Path_21857" data-name="Path 21857" d="M120.127,179.1a68.656,68.656,0,0,0-.585,8.621.734.734,0,0,1-.058.276.715.715,0,0,1-.394.387.711.711,0,0,1-.277.053.72.72,0,0,1-.663-.452.71.71,0,0,1-.053-.276,71.565,71.565,0,0,1,.594-8.79.724.724,0,0,1,1.436.181Z" fill="#0087fe"/>
    <path id="Path_21858" data-name="Path 21858" d="M132.442,147.064q-2.39,3.665-4.39,7.473a.718.718,0,0,1-.17.242.725.725,0,0,1-.544.193.724.724,0,0,1-.284-.08.714.714,0,0,1-.228-.188.721.721,0,0,1-.049-.834,85.221,85.221,0,0,1,4.474-7.6.732.732,0,0,1,.192-.223.723.723,0,0,1,.265-.127.723.723,0,0,1,.568.1.721.721,0,0,1,.18,1.041Z" fill="#0087fe"/>
    <path id="Path_21859" data-name="Path 21859" d="M124.461,162.407a71.488,71.488,0,0,0-2.675,8.225.722.722,0,0,1-.125.253.725.725,0,0,1-.479.277.726.726,0,0,1-.282-.019.722.722,0,0,1-.516-.876,74.825,74.825,0,0,1,2.727-8.376.722.722,0,0,1,.142-.261.722.722,0,0,1,.522-.253.719.719,0,0,1,.7.461.726.726,0,0,1-.027.58Z" fill="#0087fe"/>
    <path id="Path_21860" data-name="Path 21860" d="M121.483,204.9a.715.715,0,0,1,0,.284.723.723,0,0,1-.852.568.726.726,0,0,1-.565-.571c-.176-.874-.352-1.748-.525-2.639-.4-2.035-.713-4.045-.95-6.032a.729.729,0,0,1,.37-.726.715.715,0,0,1,.272-.089.739.739,0,0,1,.285.022.751.751,0,0,1,.255.13.734.734,0,0,1,.186.218.745.745,0,0,1,.089.272c.225,1.953.54,3.924.929,5.918C121.131,203.153,121.307,204.027,121.483,204.9Z" fill="#0087fe"/>
    <path id="Path_21861" data-name="Path 21861" d="M123.227,213.461c.609,2.938,1.205,5.781,1.786,8.554a.71.71,0,0,1,0,.283.738.738,0,0,1-.106.262.719.719,0,0,1-.2.2.742.742,0,0,1-.26.111.723.723,0,0,1-.282,0,.716.716,0,0,1-.263-.1.746.746,0,0,1-.2-.2.729.729,0,0,1-.11-.26c-.58-2.766-1.184-5.615-1.787-8.554a.729.729,0,0,1,0-.283.721.721,0,0,1,.3-.464.732.732,0,0,1,.26-.111.748.748,0,0,1,.283,0,.731.731,0,0,1,.262.106.726.726,0,0,1,.313.458Z" fill="#0087fe"/>
    <path id="Path_21862" data-name="Path 21862" d="M183.875,100.936c-2.489,1.514-4.956,3.073-7.375,4.664a.736.736,0,0,1-.261.107.727.727,0,0,1-.741-.311.747.747,0,0,1-.107-.261.728.728,0,0,1,.111-.542.711.711,0,0,1,.2-.2q3.657-2.406,7.426-4.695a.722.722,0,0,1,.987.242.74.74,0,0,1,.1.265.72.72,0,0,1-.337.728Z" fill="#0087fe"/>
    <path id="Path_21863" data-name="Path 21863" d="M214.69,84.515q-3.963,1.85-7.892,3.81a.731.731,0,1,1-.648-1.311q3.93-1.953,7.889-3.817a.728.728,0,0,1,.557-.024.723.723,0,0,1,.243.148.716.716,0,0,1,.168.229.733.733,0,0,1,.067.276.746.746,0,0,1-.043.281.728.728,0,0,1-.378.411Z" fill="#0087fe"/>
    <path id="Path_21864" data-name="Path 21864" d="M199.062,92.306q-3.841,2.047-7.644,4.2a.738.738,0,0,1-.818-.063.721.721,0,0,1-.188-.219.739.739,0,0,1-.09-.274.754.754,0,0,1,.022-.287.746.746,0,0,1,.349-.445q3.824-2.162,7.686-4.215a.722.722,0,0,1,.974.3.717.717,0,0,1,.068.563.725.725,0,0,1-.359.439Z" fill="#0087fe"/>
    <path id="Path_21865" data-name="Path 21865" d="M143.107,133.377q-2.949,3.243-5.6,6.636a.738.738,0,0,1-.215.186.716.716,0,0,1-.27.088.727.727,0,0,1-.282-.022.717.717,0,0,1-.253-.13.722.722,0,0,1-.12-1.012q2.721-3.447,5.677-6.718a.722.722,0,0,1,1.053.977Z" fill="#0087fe"/>
    <path id="Path_21866" data-name="Path 21866" d="M126.844,230.586c.62,2.949,1.225,5.8,1.788,8.561a.72.72,0,0,1-.556.848.728.728,0,0,1-.283,0,.728.728,0,0,1-.464-.3.709.709,0,0,1-.11-.261q-.852-4.131-1.784-8.547a.724.724,0,0,1,0-.282.734.734,0,0,1,.105-.263.715.715,0,0,1,.2-.2.734.734,0,0,1,.26-.112.724.724,0,0,1,.282,0,.723.723,0,0,1,.578.561Z" fill="#0087fe"/>
    <path id="Path_21867" data-name="Path 21867" d="M155.6,121.263c-2.214,1.92-4.364,3.873-6.425,5.875a.728.728,0,0,1-.516.2.728.728,0,0,1-.276-.06.709.709,0,0,1-.232-.162.723.723,0,0,1-.2-.516.73.73,0,0,1,.061-.276.722.722,0,0,1,.161-.232q3.128-3.03,6.492-5.926a.727.727,0,0,1,.245-.139.724.724,0,0,1,.774.213.727.727,0,0,1,.139.245.731.731,0,0,1-.04.551.727.727,0,0,1-.174.223Z" fill="#0087fe"/>
    <path id="Path_21868" data-name="Path 21868" d="M87.652,330.81q-3.819,1.73-7.989,3.492a.722.722,0,0,1-.94-.384.729.729,0,0,1-.057-.276.711.711,0,0,1,.053-.277.725.725,0,0,1,.154-.236.739.739,0,0,1,.233-.158q4.185-1.767,7.991-3.486a.733.733,0,0,1,.557-.018.745.745,0,0,1,.241.15.727.727,0,0,1,.229.508.708.708,0,0,1-.046.28.746.746,0,0,1-.15.241.713.713,0,0,1-.231.165Z" fill="#0087fe"/>
    <path id="Path_21869" data-name="Path 21869" d="M103.28,322.913c-2.409,1.376-4.979,2.748-7.733,4.131a.733.733,0,0,1-.806-.105.739.739,0,0,1-.174-.226.733.733,0,0,1,.1-.806.739.739,0,0,1,.226-.174q4.087-2.061,7.655-4.092a.74.74,0,1,1,.731,1.286Z" fill="#0087fe"/>
    <path id="Path_21870" data-name="Path 21870" d="M117.721,312.964a77.947,77.947,0,0,1-7,5.317.723.723,0,0,1-1.112-.446.754.754,0,0,1,0-.284.729.729,0,0,1,.306-.465,75.8,75.8,0,0,0,6.86-5.215.722.722,0,0,1,.944,1.093Z" fill="#0087fe"/>
    <path id="Path_21871" data-name="Path 21871" d="M38.2,348.251a.722.722,0,0,1,.469,1.366Q34.652,351,30.4,352.436a.722.722,0,0,1-.421-1.381Z" fill="#0087fe"/>
    <path id="Path_21872" data-name="Path 21872" d="M54.676,342.444a.7.7,0,0,1,.278-.042.72.72,0,0,1,.647.476.723.723,0,0,1-.435.925q-3.989,1.443-8.232,2.941a.74.74,0,0,1-.28.039.717.717,0,0,1-.272-.071.718.718,0,0,1-.368-.412.716.716,0,0,1-.04-.279.736.736,0,0,1,.071-.273.727.727,0,0,1,.412-.368Q50.687,343.886,54.676,342.444Z" fill="#0087fe"/>
    <path id="Path_21873" data-name="Path 21873" d="M123.928,306.732a.722.722,0,0,1-1.192-.129.7.7,0,0,1-.08-.271.709.709,0,0,1,.03-.282.717.717,0,0,1,.136-.248,40.56,40.56,0,0,0,4.786-7.042.722.722,0,0,1,.973-.3.728.728,0,0,1,.22.178.747.747,0,0,1,.134.25.73.73,0,0,1-.055.552A41.6,41.6,0,0,1,123.928,306.732Z" fill="#0087fe"/>
    <path id="Path_21874" data-name="Path 21874" d="M63.365,340.767a.721.721,0,0,1-.927-.419.72.72,0,0,1,.417-.934q4.222-1.59,8.141-3.14a.725.725,0,0,1,.554.01.73.73,0,0,1,.232.16.741.741,0,0,1,.153.238.724.724,0,0,1-.407.939Q67.6,339.188,63.365,340.767Z" fill="#0087fe"/>
    <path id="Path_21875" data-name="Path 21875" d="M133.629,282.536a48.565,48.565,0,0,1-1.5,8.681.723.723,0,1,1-1.4-.374,47.661,47.661,0,0,0,1.464-8.436.721.721,0,0,1,1.434.129Z" fill="#0087fe"/>
    <path id="Path_21876" data-name="Path 21876" d="M130.325,247.7q.865,4.475,1.532,8.586a.73.73,0,0,1-.885.827.727.727,0,0,1-.552-.592q-.666-4.108-1.533-8.586a.754.754,0,0,1,0-.284.724.724,0,0,1,.111-.26.739.739,0,0,1,.2-.2.712.712,0,0,1,.262-.1.734.734,0,0,1,.284,0,.75.75,0,0,1,.26.111.739.739,0,0,1,.2.2.712.712,0,0,1,.1.262Z" fill="#0087fe"/>
    <path id="Path_21877" data-name="Path 21877" d="M133.1,264.99c.351,3.055.589,5.962.7,8.75a.724.724,0,0,1-1.447.057c-.084-2.751-.339-5.616-.688-8.64a.733.733,0,1,1,1.456-.173Z" fill="#0087fe"/>
    <path id="Path_21878" data-name="Path 21878" d="M-.123,361.683a.722.722,0,0,1,.48-.9l4.121-1.332a.721.721,0,1,1,.421,1.38L.778,362.162a.721.721,0,0,1-.9-.479Z" fill="#0087fe"/>
    <path id="Path_21879" data-name="Path 21879" d="M222.68,45.1l1.7,2.854-1.816,19.627,12.112-2.343,1.175,1.973-14.289,2.773a1.083,1.083,0,0,1-1.22-.667,1.094,1.094,0,0,1-.07-.494l2.22-24.337-.012-.041A1.1,1.1,0,0,0,222.68,45.1Z" fill="#1a1a1a"/>
    <path id="Path_21880" data-name="Path 21880" d="M225.336,45.378c2.246-.353,6.814-1.082,13.342-2.19l1.993,27.934Z" fill="#ffc403"/>
    <path id="Path_21881" data-name="Path 21881" d="M238.691,43.184c-6.528,1.108-11.1,1.837-13.343,2.19l15.335,25.743.241,3.261a1.079,1.079,0,0,0,.523.851,1.082,1.082,0,0,1-1.128-.508l-4.471-7.509-1.175-1.973L224.378,47.956l-1.7-2.854a1.111,1.111,0,0,1-.141-.711,1.246,1.246,0,0,1,.038-.147l.04-.118a.123.123,0,0,1-.013-.041l.045-.074.072-.112a.665.665,0,0,1,.1-.1l.089-.08.13-.093.1-.032.29-.088.6-.092c1.657-.256,6.7-1.049,14.493-2.375Z" fill="#1a1a1a"/>
    <path id="Path_21882" data-name="Path 21882" d="M240.292,35.392l23.514,26.486-20.86,10.715Z" fill="#e29e04"/>
    <path id="Path_21883" data-name="Path 21883" d="M238.168,33.007l2.119,2.372,2.653,37.2L263.814,61.86l1.461,1.7L242.444,75.281a1.06,1.06,0,0,1-1.548-.871l-.24-3.261-1.965-27.965-.156-2.17-.624-8.652a.923.923,0,0,1,.01-.139A1.085,1.085,0,0,0,238.168,33.007Z" fill="#1a1a1a"/>
    <path id="Path_21884" data-name="Path 21884" d="M273.528,71,238,31.61,347,20Z" fill="#ffc403"/>
    <path id="Path_21885" data-name="Path 21885" d="M347.453,20.713a.757.757,0,0,1-.02.157,1.184,1.184,0,0,1-.041.186l-.075.151-.1.16-.122.12-.086.087-72.4,51.042a1.09,1.09,0,0,1-1.432-.167l-7.9-8.892-1.484-1.675L240.278,35.4l-2.119-2.372a1.087,1.087,0,0,1-.24-.787.118.118,0,0,1-.014-.048,1.288,1.288,0,0,1,.059-.252.709.709,0,0,1,.1-.182l.036-.056a.968.968,0,0,1,.178-.183l.049-.015.208-.207.069-.021a1.7,1.7,0,0,1,.255-.078L346.225,19.579a1.183,1.183,0,0,1,.369.023l.122.053a1.688,1.688,0,0,1,.2.09,1.321,1.321,0,0,1,.12.1,1.437,1.437,0,0,1,.15.143c.014.048.029.1.044.145a.709.709,0,0,1,.085.155l.011.035c.01.035.031.1.046.152A1.821,1.821,0,0,1,347.453,20.713Zm-5.118,1.5L241.181,33.137l32.934,37.14Z" fill="#1a1a1a"/>
    <path id="Path_21886" data-name="Path 21886" d="M222.471,67.713l1.874-19.7,10.374,17.229Z" fill="#e29e04"/>
  </g>
</svg>
