<svg xmlns="http://www.w3.org/2000/svg" width="45" height="45" viewBox="0 0 45 45">
  <path id="ytlogo" d="M22.5,45A22.5,22.5,0,0,1,6.591,6.591,22.5,22.5,0,1,1,38.409,38.409,22.35,22.35,0,0,1,22.5,45Zm-.024-30.393c-.07,0-7.06.005-8.8.463a2.886,2.886,0,0,0-1.984,2,29.866,29.866,0,0,0-.464,5.41,29.778,29.778,0,0,0,.464,5.413,2.822,2.822,0,0,0,1.984,1.983c1.758.476,8.732.482,8.8.482s7.062-.005,8.8-.464a2.817,2.817,0,0,0,1.983-1.983,29.888,29.888,0,0,0,.464-5.411,27.88,27.88,0,0,0-.464-5.43A2.821,2.821,0,0,0,31.28,15.09C29.539,14.613,22.546,14.607,22.476,14.607ZM20.235,25.857V19.112l5.855,3.371-5.852,3.372Z" fill="#fff"/>
</svg>
